<?xml version="1.0" encoding="UTF-8"?>
<svg width="265px" height="68px" viewBox="0 0 265 68" version="1.1" xmlns="http://www.w3.org/2000/svg" xmlns:xlink="http://www.w3.org/1999/xlink">
    <!-- Generator: Sketch 55.2 (78181) - https://sketchapp.com -->
    <title>CDS</title>
    <desc>Created with Sketch.</desc>
    <defs>
        <polygon id="path-1" points="0 68 265 68 265 0 0 0"></polygon>
    </defs>
    <g id="00---Homepage" stroke="none" stroke-width="1" fill="none" fill-rule="evenodd">
        <g id="PRODUCT-SHOT-HEADER-WHITE-BG" transform="translate(-922.000000, -1191.000000)">
            <g id="Logos" transform="translate(253.000000, 1139.000000)">
                <g id="CDS" transform="translate(669.000000, 52.000000)">
                    <path d="M80,33.9998235 C80,30.0209988 83.1006967,27 86.7989604,27 C89.4460864,27 91.658747,28.3209811 92.728636,30.8708311 L90.7884008,31.7397212 C90.0991999,29.8763014 88.5941378,28.9717664 86.7444753,28.9717664 C84.1886294,28.9717664 82.2123068,31.106229 82.2123068,33.9998235 C82.2123068,37.0564673 84.1886294,39.0278807 86.7989604,39.0278807 C88.7388417,39.0278807 90.3712715,37.9253573 90.969546,36.0079407 L93,36.7127228 C92.0939201,39.3356273 89.6463368,41 86.8350479,41 C83.0822992,41 80,38.2140462 80,33.9998235" id="Fill-1" fill="#ffb8c5"></path>
                    <mask id="mask-2" fill="white">
                        <use xlink:href="#path-1"></use>
                    </mask>
                    <g id="Clip-4"></g>
                    <polygon id="Fill-3" fill="#ffb8c5" mask="url(#mask-2)" points="96 41 98 41 98 27 96 27"></polygon>
                    <path d="M104.173299,28.9417733 L104.173299,33.8510251 L107.23576,33.8510251 C109.087102,33.8510251 110.089483,32.8431679 110.089483,31.4055053 C110.089483,29.9492663 109.087102,28.9417733 107.23576,28.9417733 L104.173299,28.9417733 Z M102,27 L107.367788,27 C110.278305,27 112.319576,28.8477989 112.319576,31.3869289 C112.319576,33.2157873 111.242331,34.7091789 109.541087,35.3815694 L113,41 L110.429879,41 L107.273376,35.7734936 L104.173299,35.7734936 L104.173299,41 L102,41 L102,27 Z" id="Fill-5" fill="#ffb8c5" mask="url(#mask-2)"></path>
                    <path d="M125.888594,34.0567769 C125.888594,31.0485562 123.772363,28.9878094 121.077118,28.9878094 C118.380777,28.9878094 116.264912,31.0485562 116.264912,34.0567769 C116.264912,37.047208 118.380777,39.1257444 121.077118,39.1257444 C123.772363,39.1257444 125.888594,37.047208 125.888594,34.0567769 M135.511545,46 C128.527946,46 124.27868,41.9706565 119.485835,40.9310325 C116.377792,40.2383057 114,37.5033332 114,34.0567769 C114,29.9907869 117.201562,27 121.077118,27 C124.952308,27 128.153505,29.9907869 128.153505,34.0567769 C128.153505,37.047208 126.300296,39.4722857 123.69784,40.4571177 C127.760433,41.9706565 131.486578,44.5597543 136.540984,44.5597543 C138.637488,44.5597543 140.6602,43.9766114 142.53204,42.7366765 L143,43.4109022 C141.10953,45.0162353 138.750368,46 135.511545,46" id="Fill-6" fill="#ffb8c5" mask="url(#mask-2)"></path>
                    <path d="M131,35.4692597 L131,27 L133.102097,27 L133.102097,35.3226385 C133.102097,37.6743144 134.398794,38.9784908 136.518361,38.9784908 C138.565196,38.9784908 139.953522,37.6743144 139.953522,35.3226385 L139.953522,27 L142,27 L142,35.4692597 C142,38.8680767 139.661167,41 136.481639,41 C133.302467,41 131,38.8680767 131,35.4692597" id="Fill-7" fill="#ffb8c5" mask="url(#mask-2)"></path>
                    <polygon id="Fill-8" fill="#ffb8c5" mask="url(#mask-2)" points="145 27 154.904488 27 154.904488 28.9417228 147.198634 28.9417228 147.198634 33.0295028 154.139275 33.0295028 154.139275 34.9147696 147.198634 34.9147696 147.198634 39.0400656 155 39.0400656 155 41 145 41"></polygon>
                    <path d="M165.169535,28.9417733 L165.169535,39.0403788 L167.509158,39.0403788 C170.641417,39.0403788 172.697929,37.0057238 172.697929,34 C172.697929,30.9764283 170.641417,28.9417733 167.509158,28.9417733 L165.169535,28.9417733 Z M163,27 L167.792637,27 C171.942844,27 175,29.9492663 175,34 C175,38.0132168 171.942844,41 167.792637,41 L163,41 L163,27 Z" id="Fill-9" fill="#ffb8c5" mask="url(#mask-2)"></path>
                    <path d="M178,35.4692597 L178,27 L180.101809,27 L180.101809,35.3226385 C180.101809,37.6743144 181.398548,38.9784908 183.518184,38.9784908 C185.565085,38.9784908 186.953455,37.6743144 186.953455,35.3226385 L186.953455,27 L189,27 L189,35.4692597 C189,38.8680767 186.660735,41 183.48146,41 C180.302185,41 178,38.8680767 178,35.4692597" id="Fill-10" fill="#ffb8c5" mask="url(#mask-2)"></path>
                    <path d="M202.830163,35.1214046 L201.007467,34.7053115 C198.516272,34.1448738 197.37898,32.4625022 197.37898,30.889183 C197.37898,28.8274219 199.112215,27 202,27 C204.52712,27 206.295928,28.5380272 206.638983,30.5821422 L204.671879,30.9071819 C204.454565,29.5692606 203.534235,28.8090701 201.927797,28.8090701 C200.267822,28.8090701 199.436602,29.7676019 199.436602,30.7624846 C199.436602,31.6846656 199.978304,32.4261514 201.530854,32.7882478 L203.317977,33.203988 C205.718653,33.7651315 207,35.2664549 207,36.9844715 C207,39.2276337 205.194914,41 202.054241,41 C199.05727,41 197.162722,39.172931 197,36.7857773 L199.076289,36.4600318 C199.184066,38.0877007 200.194914,39.155285 202.162722,39.155285 C203.93153,39.155285 204.852564,38.268396 204.852564,37.0928181 C204.852564,36.2249868 204.238307,35.4471502 202.830163,35.1214046" id="Fill-11" fill="#ffb8c5" mask="url(#mask-2)"></path>
                    <path d="M220.759653,33.9998235 C220.759653,31.0158814 218.666374,28.9717664 216.000361,28.9717664 C213.333265,28.9717664 211.240347,31.0158814 211.240347,33.9998235 C211.240347,36.9661196 213.333265,39.0278807 216.000361,39.0278807 C218.666374,39.0278807 220.759653,36.9661196 220.759653,33.9998235 M209,33.9998235 C209,29.966649 212.166839,27 216.000361,27 C219.833523,27 223,29.966649 223,33.9998235 C223,37.9973531 219.833523,41 216.000361,41 C212.166839,41 209,37.9973531 209,33.9998235" id="Fill-12" fill="#ffb8c5" mask="url(#mask-2)"></path>
                    <polygon id="Fill-13" fill="#ffb8c5" mask="url(#mask-2)" points="226 27 228.1431 27 228.1431 39.0400656 235 39.0400656 235 41 226 41"></polygon>
                    <polygon id="Fill-14" fill="#ffb8c5" mask="url(#mask-2)" points="237 27 246.904858 27 246.904858 28.9417228 239.198717 28.9417228 239.198717 33.0295028 246.139616 33.0295028 246.139616 34.9147696 239.198717 34.9147696 239.198717 39.0400656 247 39.0400656 247 41 237 41"></polygon>
                    <polygon id="Fill-15" fill="#ffb8c5" mask="url(#mask-2)" points="250 41 252 41 252 27 250 27"></polygon>
                    <polygon id="Fill-16" fill="#ffb8c5" mask="url(#mask-2)" points="256 27 258.142736 27 258.142736 39.0400656 265 39.0400656 265 41 256 41"></polygon>
                    <path d="M263.524578,28.4209765 C263.687705,28.4209765 263.781648,28.3359855 263.781648,28.19783 C263.781648,28.0556962 263.687705,27.9703436 263.524578,27.9703436 L263.324311,27.9703436 L263.324311,28.4209765 L263.524578,28.4209765 Z M263.442287,28.717179 L263.324311,28.717179 L263.324311,29.3019892 L262.972569,29.3019892 L262.972569,27.674141 L263.581745,27.674141 C263.900352,27.674141 264.141401,27.9052441 264.141401,28.1934901 C264.141401,28.4166365 264.006676,28.5952984 263.806409,28.6726944 L264.153781,29.3019892 L263.753247,29.3019892 L263.442287,28.717179 Z M263.495813,29.6918626 C264.14577,29.6918626 264.656269,29.1717902 264.656269,28.4980108 C264.656269,27.8282098 264.14577,27.3088608 263.495813,27.3088608 C262.84185,27.3088608 262.334992,27.8282098 262.334992,28.4980108 C262.334992,29.1717902 262.84185,29.6918626 263.495813,29.6918626 L263.495813,29.6918626 Z M263.495813,27 C264.325282,27 265,27.674141 265,28.4980108 C265,29.3262206 264.325282,30 263.495813,30 C262.666343,30 262,29.3262206 262,28.4980108 C262,27.674141 262.666343,27 263.495813,27 L263.495813,27 Z" id="Fill-17" fill="#ffb8c5" mask="url(#mask-2)"></path>
                    <path d="M20,51.1423616 C20.7815993,51.8172115 21.6033657,52.4396264 22.4641936,53 C22.5555829,52.2138759 22.7479425,51.5670447 23,51.0166778 C22.5305245,50.696064 22.0709986,50.3594396 21.627687,50 L20,51.1423616 Z" id="Fill-18" fill="#ffb8c5" mask="url(#mask-2)"></path>
                    <path d="M45.5361091,53 C46.3964628,52.439952 47.2177598,51.8170536 48,51.1421137 L46.3721444,50 C45.9285188,50.3590873 45.4690494,50.6957566 45,51.0164131 C45.2520265,51.5668535 45.444731,52.213771 45.5361091,53" id="Fill-19" fill="#ffb8c5" mask="url(#mask-2)"></path>
                    <path d="M49.4441858,52 C48.1311431,53.1422392 46.6977889,54.1398913 45.1673977,54.9736777 C44.7724465,56.4225161 43.8407484,57.3919921 43,58 C45.961597,56.8559071 48.6646674,55.1605289 51,53.0402867 L49.4441858,52 Z" id="Fill-20" fill="#ffb8c5" mask="url(#mask-2)"></path>
                    <path d="M10.4443879,45 C10.252574,44.0005535 10.2533367,42.6929828 11,41.4348686 C10.4596415,39.820597 10.1038515,38.1312512 9.94292615,36.3899585 L8,36 C8.22384645,39.1940304 9.07652218,42.2286618 10.4443879,45" id="Fill-21" fill="#ffb8c5" mask="url(#mask-2)"></path>
                    <path d="M12,36 C12.1041251,37.0210225 12.2661344,38.023386 12.4863606,39 C13.0086494,38.5421072 13.5136394,38.256624 14,38.0722727 C13.8892216,37.5274288 13.7950765,36.9754945 13.7228876,36.4153502 L12,36 Z" id="Fill-22" fill="#ffb8c5" mask="url(#mask-2)"></path>
                    <path d="M41.9765234,57 C40.1986597,57.5850183 38.3325073,57.9723508 36.4011458,58.1378806 L36,60 C38.0332049,59.8684531 40.0044978,59.5081608 41.8878683,58.9414129 C41.9944742,58.3213155 42.0274451,57.6548112 41.9765234,57" id="Fill-23" fill="#ffb8c5" mask="url(#mask-2)"></path>
                    <path d="M12.1788156,45 C11.7300881,45.4054991 11.3268265,45.8740758 11,46.3613678 C11.8569311,48.0315388 12.893419,49.5849122 14.0758587,51 L15,49.4944547 C13.9022321,48.123036 12.954699,46.6154113 12.1788156,45" id="Fill-24" fill="#ffb8c5" mask="url(#mask-2)"></path>
                    <path d="M14,44.2519369 C14.7900233,45.5884634 15.7459191,46.8429255 16.8429484,48 L18,46.4962799 C17.3146102,45.7277346 16.6977593,44.9135601 16.153503,44.0622693 C15.4506742,43.9294679 14.715401,44.0166401 14,44.2519369" id="Fill-25" fill="#ffb8c5" mask="url(#mask-2)"></path>
                    <path d="M54,38.0722727 C54.4860279,38.256624 54.991018,38.5424804 55.5136394,39 C55.7335329,38.023386 55.8952096,37.0217689 56,36 L54.2767798,36.4157233 C54.2045908,36.9758676 54.1104458,37.5274288 54,38.0722727" id="Fill-26" fill="#ffb8c5" mask="url(#mask-2)"></path>
                    <path d="M27,54.7762707 C28.5987436,55.3690748 30.2712996,55.7845517 32,56 L31.5626227,53.7821245 C30.4550452,53.6077955 29.3741657,53.3452313 28.325481,53 C27.7330192,53.4043404 27.2991755,54.0318389 27,54.7762707" id="Fill-27" fill="#ffb8c5" mask="url(#mask-2)"></path>
                    <path d="M5.78290511,35.3971563 L4,35 C4.21457282,42.7311387 7.22320303,49.745853 12.018285,55 L13,53.4257031 C8.75961538,48.6319048 6.07869641,42.3361868 5.78290511,35.3971563" id="Fill-28" fill="#ffb8c5" mask="url(#mask-2)"></path>
                    <path d="M22.8326023,54.9738615 C21.301853,54.1400235 19.8688569,53.1423098 18.5554561,52 L17,53.0399802 C19.3346164,55.1607242 22.0376869,56.8558364 25,58 C24.1588936,57.3919545 23.2271954,56.4224186 22.8326023,54.9738615" id="Fill-29" fill="#ffb8c5" mask="url(#mask-2)"></path>
                    <path d="M54,44.2519369 C53.284599,44.0166401 52.5489202,43.9294679 51.8460915,44.0622693 C51.3018351,44.9135601 50.6849843,45.7277346 50,46.4962799 L51.1566461,48 C52.2540809,46.8429255 53.2095711,45.5884634 54,44.2519369" id="Fill-30" fill="#ffb8c5" mask="url(#mask-2)"></path>
                    <path d="M36,56 C37.7285647,55.7845824 39.4009893,55.3687366 41,54.7764454 C40.700848,54.0316916 40.2666457,53.4042827 39.6742305,53 C38.6256281,53.3456103 37.5452261,53.608137 36.437343,53.7820128 L36,56 Z" id="Fill-31" fill="#ffb8c5" mask="url(#mask-2)"></path>
                    <path d="M16.1492806,38 C16.8246403,37.9258333 17.4442446,37.92 18,37.5979167 L16,37 C16.0440647,37.3358333 16.0938249,37.6691667 16.1492806,38" id="Fill-32" fill="#ffb8c5" mask="url(#mask-2)"></path>
                    <path d="M18.4832414,45 L19,44 C18.718286,44.0572944 18.386084,44.0907162 18,44.0880637 C18.1569792,44.3962865 18.3169283,44.7007958 18.4832414,45" id="Fill-33" fill="#ffb8c5" mask="url(#mask-2)"></path>
                    <path d="M23.7157155,50 C24.2277436,49.3207171 24.7330992,48.7354582 25,48 L23,49.4657371 C23.2345917,49.6501992 23.4733977,49.8278884 23.7157155,50" id="Fill-34" fill="#ffb8c5" mask="url(#mask-2)"></path>
                    <path d="M38,51.8136674 C37.6806723,51.5220957 37.4280771,51.2487472 37.2333169,51 L37,52 C37.3356401,51.9439636 37.669303,51.8820046 38,51.8136674" id="Fill-35" fill="#ffb8c5" mask="url(#mask-2)"></path>
                    <path d="M31,52 L30.7666831,51 C30.5719229,51.2487472 30.319822,51.5220957 30,51.8136674 C30.330697,51.8820046 30.6643599,51.9439636 31,52" id="Fill-36" fill="#ffb8c5" mask="url(#mask-2)"></path>
                    <path d="M66.2284758,34.3991431 L66.2284758,34.3991431 C66.1288094,43.0114304 62.647373,50.8094875 57.0490231,56.5297538 L57.0472109,56.5315656 C51.2024133,62.5029495 43.0536919,66.2099256 34.0373296,66.2099256 C33.8956221,66.2099256 33.7546395,66.2063019 33.6140194,66.2041277 C25.0231418,66.093607 17.2448168,62.6196305 11.5337533,57.037787 C5.61030987,51.2475847 1.91323164,43.1926121 1.84473367,34.272316 C1.84328398,34.1882477 1.84110944,34.1041794 1.84110944,34.0190241 L1.84110944,34.0182993 L1.84110944,33.9947457 L1.84183429,33.9947457 C1.84292156,33.8719046 1.84908275,33.7501505 1.85089487,33.6273094 L16.4206666,30.4943168 C15.8708708,30.0968043 15.1742935,29.3909207 14.4103056,28.1237364 C13.4129172,26.4680987 10.7168516,26.1100838 8.6865573,26.5503552 C8.6865573,26.5503552 9.94416552,22.531022 13.9380683,22.5266737 C17.4753179,22.52305 18.2835215,24.7783989 19.968789,25.4719621 L9.96989756,9.99579019 L24.0645326,19.0990797 C23.9565305,18.4297948 23.9634166,17.4372818 24.3193161,16.0015987 C24.7846674,14.1256441 23.1316555,11.9663215 21.3851385,10.8426331 C21.3851385,10.8426331 25.1162845,8.8894952 27.9435473,11.7101307 C30.4475286,14.2079006 29.4240457,16.3744704 30.124972,18.0561983 L33.9996376,0.043845953 L34,0.043845953 L37.875028,18.0561983 C38.5759543,16.3744704 37.552109,14.2079006 40.0560903,11.7101307 C42.8833531,8.8894952 46.6152239,10.8426331 46.6152239,10.8426331 C44.8683445,11.9663215 43.2153326,14.1256441 43.6803215,16.0015987 C44.0365834,17.4372818 44.0434695,18.4297948 43.9351049,19.0990797 L58.0301024,9.99579019 L48.0308486,25.4719621 C49.7161161,24.7783989 50.5246821,22.52305 54.0619317,22.5266737 C58.0558345,22.531022 59.3130803,26.5503552 59.3130803,26.5503552 C57.2831484,26.1100838 54.5870828,26.4680987 53.5896944,28.1237364 C52.8260689,29.3909207 52.1291292,30.0968043 51.5789709,30.4943168 L66.2241267,33.6436157 C66.2255764,33.7606591 66.2321,33.87734 66.2328249,33.9947457 C66.2328249,34.0027177 66.2335497,34.0110521 66.2335497,34.0190241 C66.2335497,34.1222976 66.2302879,34.2252088 66.2295631,34.3281199 L66.2284758,34.3991431 Z M68,33.9947457 C68,15.2199811 52.7778666,0 33.9996376,0 C15.2221334,0 0,15.2199811 0,33.9947457 L0,34.0052543 C0,52.7800189 15.2221334,68 33.9996376,68 C52.7778666,68 68,52.7800189 68,34.0052543 L68,33.9947457 Z" id="Fill-37" fill="#ffb8c5" mask="url(#mask-2)"></path>
                    <path d="M55,53.4257031 L55.9816763,55 C60.7765693,49.7454856 63.785081,42.7311387 64,35 L62.2171651,35.3971563 C61.9210309,42.3358194 59.2402175,48.6319048 55,53.4257031" id="Fill-38" fill="#ffb8c5" mask="url(#mask-2)"></path>
                    <path d="M14.5742187,55 L13,55.9833814 C18.2565822,60.7802076 25.270013,63.7879051 33,64 L32.6024032,62.2140686 C25.665405,61.9206174 19.3703676,59.2411874 14.5742187,55" id="Fill-39" fill="#ffb8c5" mask="url(#mask-2)"></path>
                    <path d="M50,44.0880637 C49.6141766,44.0907162 49.2818336,44.0567639 49,44 L49.5165535,45 C49.6829372,44.7002653 49.8433786,44.3962865 50,44.0880637" id="Fill-40" fill="#ffb8c5" mask="url(#mask-2)"></path>
                    <path d="M55.8211844,45 C55.045301,46.6154113 54.0977679,48.123036 53,49.4944547 L53.9241413,51 C55.1069105,49.5849122 56.1430689,48.0315388 57,46.3613678 C56.6731735,45.8740758 56.2699119,45.4054991 55.8211844,45" id="Fill-41" fill="#ffb8c5" mask="url(#mask-2)"></path>
                    <path d="M53.4253849,55 C48.6298828,59.2411874 42.3343623,61.9206174 35.3972366,62.2140686 L35,64 C42.7297615,63.7879051 49.7433212,60.7802076 55,55.9833814 L53.4253849,55 Z" id="Fill-42" fill="#ffb8c5" mask="url(#mask-2)"></path>
                    <path d="M60,36 L58.0566925,36.3899585 C57.8957671,38.1312512 57.5403585,39.820597 57,41.4348686 C57.7466633,42.6929828 57.747426,44.0005535 57.5556121,45 C58.9234778,42.2286618 59.7765349,39.1940304 60,36" id="Fill-43" fill="#ffb8c5" mask="url(#mask-2)"></path>
                    <path d="M52,37 L50,37.5983333 C50.5555389,37.92 51.1752361,37.92625 51.850697,38 C51.906161,37.6691667 51.9559286,37.33625 52,37" id="Fill-44" fill="#ffb8c5" mask="url(#mask-2)"></path>
                    <path d="M44,49.4657371 L42,48 C42.2665028,48.7354582 42.7721208,49.3207171 43.284059,50 C43.5266854,49.8278884 43.7654494,49.6501992 44,49.4657371" id="Fill-45" fill="#ffb8c5" mask="url(#mask-2)"></path>
                    <path d="M31.5981548,58.1378806 C29.66732,57.9723508 27.8009562,57.5846529 26.0232401,57 C25.9726889,57.6548112 26.0056571,58.3213155 26.1118878,58.9414129 C27.995102,59.5081608 29.9665976,59.8680877 32,60 L31.5981548,58.1378806 Z" id="Fill-46" fill="#ffb8c5" mask="url(#mask-2)"></path>
                    <path d="M33.500155,36.1028774 C34.4193901,36.1028774 34.7244584,35.9164367 34.7244584,35.4682696 C34.7244584,35.2175798 34.687875,35 34.687875,35 C34.687875,35 34.9517094,35.2077257 34.9960435,35.7063461 C35.044408,36.2495073 34.655322,37 33.499845,37 C32.3446781,37 31.955592,36.2495073 32.0039565,35.7063461 C32.0486007,35.2077257 32.3124351,35 32.3124351,35 C32.3124351,35 32.2758517,35.2175798 32.2758517,35.4682696 C32.2758517,35.9164367 32.5806099,36.1028774 33.500155,36.1028774" id="Fill-47" fill="#ffb8c5" mask="url(#mask-2)"></path>
                    <path d="M27.2798951,37.9440589 C26.5720802,38.1674946 25.6493853,37.7015655 25.2187657,36.9037687 C24.788146,36.1063005 25.0129106,35.2789314 25.7202957,35.0558243 C26.4281106,34.8327172 27.3503758,35.2983177 27.7814252,36.0964431 C28.2116151,36.8942398 27.9872803,37.7209518 27.2798951,37.9440589" id="Fill-48" fill="#ffb8c5" mask="url(#mask-2)"></path>
                    <path d="M30.1513368,33 C29.5707613,33 29.104362,32.4877511 29.1000535,31.8568105 C29.0989763,31.7018084 29.1230323,31.5956104 29.128059,31.5261132 C29.1539102,31.2067386 28.7252106,31.1419266 28.328466,31.2028342 C28.1349408,31.2328976 27.9116149,31.2801401 27.4918915,31.4464648 C27.2592304,31.5389976 27.0014362,31.7162544 27,31.7174257 C27.3960265,30.8346554 28.4462327,30.1408549 29.7276639,30.0186492 C31.4288185,29.8570097 32.8912083,30.7639869 32.9942541,32.0453899 C33.0140016,32.2905822 32.9824057,32.5314797 32.9062882,32.7618355 C32.9062882,32.7618355 32.9044929,32.5322606 32.833402,32.3315777 C32.8104232,32.2667657 32.7831358,32.2015633 32.7522579,32.1371418 C32.5576556,31.6924379 32.1842489,31.2801401 31.6496311,31.136851 C30.8769665,30.9299212 30.568547,31.2707697 30.568547,31.2707697 C30.568547,31.2707697 30.5699832,31.2735027 30.5707013,31.2742836 C30.4874028,31.3547129 30.432469,31.4687195 30.432469,31.5995148 C30.432469,31.841974 30.6130686,32.0387525 30.8360354,32.0387525 C31.0026322,32.0387525 31.1451731,31.9290407 31.2065697,31.7728673 C31.2015431,31.8505635 31.1997479,31.8868739 31.1997479,31.8868739 C31.184668,32.5037589 30.7225772,33 30.1513368,33" id="Fill-49" fill="#ffb8c5" mask="url(#mask-2)"></path>
                    <path d="M34.7183666,41.6625683 C34.5381798,41.8592896 34.3235671,42 34.0053104,42 C33.6870537,42 33.4610877,41.8592896 33.2812672,41.6625683 C33.0963194,41.477459 33,41.2479508 33,41.2479508 C33,41.2479508 33.1468595,41.1550546 33.3373009,41.0997268 C33.5266435,41.034153 33.7767808,41 34.0067753,41 C34.2367698,41 34.4729903,41.034153 34.6623329,41.0997268 C34.8527742,41.1550546 35,41.2479508 35,41.2479508 C35,41.2479508 34.9029482,41.477459 34.7183666,41.6625683" id="Fill-50" fill="#ffb8c5" mask="url(#mask-2)"></path>
                    <path d="M33.5,40 C32.0821031,40 30.8203359,39.217372 30,38 C31.0891635,38.4848216 32.2678113,38.7516065 33.5,38.7516065 C34.7318143,38.7516065 35.9108365,38.4848216 37,38 C36.1792897,39.217372 34.9178969,40 33.5,40" id="Fill-51" fill="#ffb8c5" mask="url(#mask-2)"></path>
                    <path d="M37.8695402,33.8987205 C37.3298925,33.8987205 36.8940785,33.4588124 36.8204248,32.9015702 C36.8204248,32.9015702 36.8132391,32.8449783 36.7985084,32.7374536 C36.7643762,32.4443072 36.5538345,32.3794151 36.2333513,32.4152567 C35.9800547,32.4443072 35.7734651,32.5503228 35.5287913,32.9449574 C35.2449553,33.4022204 35.0002815,35 35.0002815,35 L35.0002815,33.2886592 C34.9995629,33.1747207 34.9999222,33.0868146 35.0049522,32.9558985 C35.0538151,31.7512444 36.5671281,30.8616188 38.2687071,31.0178126 C39.552077,31.1359012 40.6026296,31.8070818 41,32.6604885 C40.9982036,32.6597339 40.8645491,32.5673004 40.6227496,32.4571347 C40.0928026,32.2005845 39.5862092,32.0904188 39.0361422,32.0579728 C38.4548173,32.0232631 38.2855935,32.2281259 38.2855935,32.2281259 L38.2870307,32.2303896 C38.2029577,32.3084865 38.1472684,32.4190295 38.1472684,32.5457955 C38.1472684,32.7800862 38.3283486,32.9702351 38.5514652,32.9702351 C38.7152997,32.9702351 38.8547027,32.8672378 38.9182964,32.7200987 C38.9193742,32.7446219 38.9215299,32.7683905 38.9215299,32.7940455 C38.9190149,33.4041068 38.4505059,33.8987205 37.8695402,33.8987205" id="Fill-52" fill="#ffb8c5" mask="url(#mask-2)"></path>
                    <path d="M39.7198103,37.9440589 C39.012408,37.7209518 38.7884975,36.8942398 39.2186978,36.0964431 C39.649328,35.2983177 40.5720454,34.8327172 41.2798776,35.0558243 C41.98728,35.2789314 42.2116202,36.1063005 41.7814199,36.9037687 C41.3507897,37.7015655 40.4280723,38.1674946 39.7198103,37.9440589" id="Fill-53" fill="#ffb8c5" mask="url(#mask-2)"></path>
                    <path d="M30.0220139,29.5932141 C31.4677538,29.6886131 32,30 32,30 C32,30 31.6441908,29.0435975 30.1358337,29.0017934 C28.6271504,28.9599893 28,29.6628875 28,29.6628875 C28,29.6628875 28.8834896,29.5181811 30.0220139,29.5932141" id="Fill-54" fill="#ffb8c5" mask="url(#mask-2)"></path>
                    <path d="M40,29.6628875 C40,29.6628875 39.3729518,28.9599893 37.8645146,29.0017934 C36.3564034,29.0435975 36,30 36,30 C36,30 36.5324855,29.6888811 37.9779897,29.5932141 C39.1166544,29.5181811 40,29.6628875 40,29.6628875" id="Fill-55" fill="#ffb8c5" mask="url(#mask-2)"></path>
                    <path d="M48.7042007,48.7027522 L42.232294,42.2308455 C42.645117,41.8180224 43.0278837,41.3762293 43.3791454,40.9083632 L48.7042007,48.7027522 Z M33.5,45.8481169 C34.0935237,45.8481169 34.6765457,45.8039376 35.2476176,45.7228215 L33.5010864,55.0012007 L33.5010864,45.8481169 L33.5,45.8481169 L33.5,45.8481169 Z M23.6208546,40.9083632 C23.9721163,41.3758672 24.3552451,41.8180224 24.767706,42.2308455 L18.2961615,48.7027522 L23.6208546,40.9083632 Z M21.1518831,33.5003621 C21.1518831,34.0935237 21.1964245,34.6765457 21.2775406,35.2476176 L11.9995235,33.5010864 L21.1518831,33.5010864 L21.1518831,33.5003621 L21.1518831,33.5003621 Z M18.2961615,18.2972478 L24.767706,24.7695167 C24.3552451,25.1823397 23.9721163,25.6244949 23.6208546,26.0919989 L18.2961615,18.2972478 Z M33.5,21.1518831 C32.9064763,21.1518831 32.3238164,21.1964245 31.7523824,21.2775406 L33.4992757,11.9995235 L33.4992757,21.1518831 L33.5,21.1518831 L33.5,21.1518831 Z M43.3791454,26.0919989 C43.0278837,25.6244949 42.645117,25.1819776 42.232294,24.7695167 L48.7042007,18.2972478 L43.3791454,26.0919989 Z M33.5,44.1280209 C27.6397233,44.1280209 22.8719791,39.3602767 22.8719791,33.5003621 C22.8719791,27.6397233 27.6397233,22.8719791 33.5,22.8719791 C39.3602767,22.8719791 44.1280209,27.6397233 44.1280209,33.5003621 C44.1280209,39.3602767 39.3602767,44.1280209 33.5,44.1280209 L33.5,44.1280209 Z M55.0012007,33.4992757 L45.8481169,33.4992757 C45.8481169,32.9061142 45.8035755,32.3234543 45.7231837,31.7523824 L55.0012007,33.4992757 Z M50.7592628,39.1596592 C48.0027636,39.3334795 46.6705039,37.7028284 46.0657544,36.4987611 L62,33.5043455 L46.0686514,30.5113784 C47.9886407,30.065964 49.7163414,30.2502859 51.6290882,26.9422696 C53.0312381,24.5171152 55.9503316,24.5736068 56.2824007,24.657982 C56.5047457,24.7141115 56.4239918,24.5964207 56.4239918,24.5964207 C55.8840627,23.7964855 52.5340398,22.0894259 49.7051155,25.2993062 C47.8749333,27.3757338 45.7738812,27.1595449 44.4959404,26.7336853 L53.6493863,13.3444576 L40.2692117,22.4921095 C41.311771,20.8201761 42.6614127,19.7272814 41.675345,16.0364984 C40.9521804,13.3299726 43.0557673,11.3060532 43.3501753,11.1307845 C43.5475337,11.0130937 43.407029,10.9870207 43.407029,10.9870207 C42.4597088,10.803423 38.8837196,11.9651216 39.1527788,16.2353053 C39.3265991,18.987459 37.7006556,20.3204429 36.4973126,20.9262789 L33.5043455,5 L30.5113784,20.9306244 C29.3073111,20.3265991 27.6734009,18.9939773 27.8472212,16.2353053 C28.1166425,11.9651216 24.5406534,10.803423 23.5933331,10.9870207 C23.5933331,10.9870207 23.4528284,11.0130937 23.6501868,11.1307845 C23.9445948,11.3060532 26.0481817,13.3299726 25.324655,16.0364984 C24.3385873,19.7272814 25.6885911,20.8201761 26.7311504,22.4921095 L13.3506137,13.3444576 L22.5044217,26.7336853 C21.2261188,27.1595449 19.1250667,27.3757338 17.2956088,25.2993062 C14.4663223,22.0894259 11.1159373,23.7964855 10.5760082,24.5964207 C10.5760082,24.5964207 10.4952543,24.7141115 10.7179614,24.657982 C11.0503926,24.5736068 13.9687619,24.5171152 15.3709118,26.9422696 C17.2771404,30.2379736 18.9986849,30.0674125 20.9096211,30.5063086 L5,33.4956545 L20.9385911,36.4900701 C20.3360143,37.6952238 19.0033925,39.3338416 16.2410993,39.1596592 C11.9712777,38.8902379 10.809217,42.466227 10.9924525,43.4139094 C10.9924525,43.4139094 11.0188877,43.554052 11.1365785,43.3566936 C11.3118472,43.0626477 13.3357666,40.9586986 16.0422924,41.6818632 C19.7334375,42.6682931 20.8263322,41.317565 22.4986277,40.2753678 L13.3506137,53.6559046 L26.7394793,44.5024586 C27.1653389,45.7807616 27.3811657,47.8814516 25.3051003,49.7116338 C22.0952199,52.5409202 23.8022795,55.8909431 24.6018526,56.4308722 C24.6018526,56.4308722 24.7199055,56.511264 24.6634139,56.288919 C24.5794008,55.9568499 24.5232713,53.0381185 26.9480636,51.6359686 C30.2376115,49.7337234 30.0739308,48.0150759 30.5095677,46.108123 L33.4956545,62 L36.4857246,46.0860334 C36.9278799,48.0016772 36.7500762,49.7264809 40.0519364,51.6359686 C42.4774529,53.0381185 42.4205992,55.9568499 42.3365861,56.288919 C42.2804567,56.511264 42.3985096,56.4308722 42.3985096,56.4308722 C43.1980826,55.8909431 44.9051422,52.5409202 41.6952619,49.7116338 C39.6184722,47.8814516 39.8350233,45.7807616 40.2608828,44.5024586 L53.6493863,53.6559046 L44.5017344,40.2753678 C46.1740299,41.3179271 47.2665625,42.6682931 50.9584318,41.6818632 C53.6642334,40.9586986 55.6881528,43.0626477 55.8637836,43.3566936 C55.9814744,43.554052 56.0075475,43.4139094 56.0075475,43.4139094 C56.1911451,42.466227 55.0294465,38.8902379 50.7592628,39.1596592 L50.7592628,39.1596592 Z" id="Fill-56" fill="#ffb8c5" mask="url(#mask-2)"></path>
                    <path d="M33.493951,36.6755687 C32.6320436,36.6755687 32.1762398,36.3613584 32,36.016815 C32.132752,36.4335641 32.493079,37 33.4968937,37 C34.5137875,37 34.8718256,36.4180679 35,36 C34.9957493,36.0092318 34.9885559,36.016815 34.9836512,36.0257171 C34.8041417,36.3669634 34.3480109,36.6755687 33.493951,36.6755687" id="Fill-65" fill="#76787A" mask="url(#mask-2)"></path>
                    <path d="M34.718052,41.2873454 C34.5382644,41.423882 34.323691,41.5223597 34.0054925,41.5223597 C33.687294,41.5223597 33.4613695,41.423882 33.2815818,41.2873454 C33.0999634,41.1603235 33.0047602,41.0057088 33.0014647,41 L33,41 C33.0007323,41.0052331 33.1131454,42 34.0051263,42 C34.8974735,42 34.9992677,41.0042816 35,41 L34.9985353,41 C34.9952398,41.0052331 34.8996705,41.1603235 34.718052,41.2873454" id="Fill-66" fill="#76787A" mask="url(#mask-2)"></path>
                    <path d="M59,61 L59,63 L58.6786593,63 L58.6786593,62.2215385 C58.6786593,62.0465934 58.6786593,61.9006593 58.697996,61.7854945 L58.3400914,62.9832967 L58.0742998,62.9832967 L57.7072542,61.7784615 C57.7209657,61.9006593 57.7209657,62.0465934 57.7209657,62.2215385 L57.7209657,63 L57.4006797,63 L57.4006797,61 L57.7585843,61 L58.2005156,62.5472527 L58.6378765,61 L59,61 Z M56,61 L57.2368452,61 L57.2368452,61.3837363 L56.7952654,61.3837363 L56.7952654,63 L56.4373608,63 L56.4373608,61.3837363 L56,61.3837363 L56,61 Z" id="Fill-67" fill="#ffb8c5" mask="url(#mask-2)"></path>
                </g>
            </g>
        </g>
    </g>
</svg>