<?xml version="1.0" encoding="UTF-8"?>
<svg width="210px" height="93px" viewBox="0 0 210 93" version="1.1" xmlns="http://www.w3.org/2000/svg" xmlns:xlink="http://www.w3.org/1999/xlink">
    <!-- Generator: Sketch 55.2 (78181) - https://sketchapp.com -->
    <title>logo</title>
    <desc>Created with Sketch.</desc>
    <g id="New" stroke="none" stroke-width="1" fill="none" fill-rule="evenodd">
        <g id="Homepage" transform="translate(-242.000000, -3336.000000)" fill="#ffb8c5">
            <g id="Data---3" transform="translate(180.000000, 3286.000000)">
                <g id="logo" transform="translate(62.000000, 50.000000)">
                    <path d="M25.1790857,28.4286765 C23.4358102,28.4286765 22.327402,28.4818194 22.327402,28.4818194 L22.2742592,49.8158296 C22.2742592,49.8158296 26.4459735,50.6082276 31.0399837,48.495799 C35.6349429,46.3833704 36.5848714,41.6840235 36.5848714,39.519401 C36.5848714,37.3528806 36.5317286,34.2383296 33.7331878,31.4919827 C30.9355959,28.7456357 26.9223612,28.4286765 25.1790857,28.4286765" id="Fill-1"></path>
                    <path d="M118.830086,49.8460071 C124.119698,49.8460071 128.410035,45.0574561 128.410035,39.1519561 C128.410035,33.2464561 124.119698,28.4579051 118.830086,28.4579051 C113.542371,28.4579051 109.251086,33.2464561 109.251086,39.1519561 C109.251086,45.0574561 113.542371,49.8460071 118.830086,49.8460071" id="Fill-3"></path>
                    <path d="M57.1269582,29.1148837 C54.6036214,32.9487612 52.6306929,37.2704143 51.2366418,42.1064143 L63.0144276,42.1064143 C61.6279684,37.2637714 59.6654786,32.9335776 57.1269582,29.1148837" id="Fill-5"></path>
                    <path d="M194.689142,41.7885061 L172.509591,41.7885061 C173.467111,46.8247408 176.041693,49.8785571 181.223121,49.9734551 C183.738866,50.0199551 185.904438,49.1288633 187.717938,47.3343429 L194.425326,48.9703837 C191.01754,53.4761388 186.47857,56.2443122 180.114713,56.257642 C175.942999,56.2661388 172.763917,55.0324653 170.397162,52.720751 C166.998866,49.3993224 165.611458,45.3405367 165.539336,39.8877 C165.463417,34.1482714 167.093764,29.7374143 169.816387,26.8449245 C172.715519,23.7664347 176.374785,22.2319347 180.853968,22.1977714 C185.62354,22.1617102 189.172723,23.6459143 191.415162,26.4757714 C193.680377,29.333149 194.79353,32.6707102 195.005152,36.2967612 C195.110489,38.0922306 195.006101,39.9930367 194.689142,41.7885061 L194.689142,41.7885061 Z M165.557366,64.488098 C127.567815,90.9152816 87.0198153,94.0326796 42.3750704,64.8914143 C39.7758153,63.1955878 39.1210194,58.350098 45.4307847,61.3669041 C85.0905398,80.3199245 124.061336,80.154802 163.126081,61.0831592 C165.926519,59.7147306 168.037999,62.763802 165.557366,64.488098 L165.557366,64.488098 Z M37.2724071,51.6635878 C34.1028153,54.3577408 28.6110704,56.1522612 23.4353357,56.1522612 C18.261499,56.1522612 15.0397133,55.4130061 15.0397133,55.4130061 C15.0397133,55.4130061 15.3044786,52.8792306 15.3044786,48.2320776 C15.3044786,43.5849245 15.4098153,39.517598 15.4098153,32.2313327 C15.4098153,24.9441184 14.6705602,22.9370265 14.6705602,22.9370265 C14.8290398,22.9370265 17.3637643,22.4625367 21.9568255,22.2509143 C26.5517847,22.0392918 32.5189684,22.5137816 36.4268663,24.9972612 C40.3347643,27.4778939 43.2908357,31.2804551 43.2908357,38.1985163 C43.2908357,45.1156286 40.440101,48.9703837 37.2724071,51.6635878 L37.2724071,51.6635878 Z M60.6657031,23.1477 C67.2288459,30.4092918 71.2458765,40.9704857 72.6000704,54.9907102 L65.2587643,54.9907102 C65.0680194,52.5556286 64.7709888,50.2144959 64.3667235,47.9673122 L49.8758051,47.9673122 C49.4743867,50.2107 49.1792541,52.5518327 48.995152,54.9907102 L41.8654684,54.9907102 C43.5233357,40.7028735 47.461601,29.9718122 53.9061214,23.1477 L60.6657031,23.1477 Z M73.8128663,23.1477 L79.6756622,23.1477 C85.2926724,27.4351898 90.1998459,32.6764041 94.2491418,38.5116796 L94.2491418,23.1477 L101.220346,23.1477 L101.220346,54.9907102 L94.9893459,54.9907102 C92.0854684,46.2781286 87.3500602,39.0431082 80.7840704,33.2875469 L80.7840704,54.9907102 L73.8128663,54.9907102 L73.8128663,23.1477 Z M118.829611,22.1588633 C127.707315,22.1588633 134.904377,29.7687306 134.904377,39.1522408 C134.904377,48.534802 127.707315,56.1446694 118.829611,56.1446694 C109.954754,56.1446694 102.756744,48.534802 102.756744,39.1522408 C102.756744,29.7687306 109.954754,22.1588633 118.829611,22.1588633 L118.829611,22.1588633 Z M136.504356,23.1477 L142.364305,23.1477 C147.982264,27.4351898 152.888489,32.6764041 156.939683,38.5116796 L156.939683,23.1477 L163.908989,23.1477 L163.908989,54.9907102 L157.678938,54.9907102 C154.774111,46.2781286 150.039652,39.0431082 143.473662,33.2875469 L143.473662,54.9907102 L136.504356,54.9907102 L136.504356,23.1477 Z M201.280754,15.2379551 C167.610958,2.44191429 130.945234,0.00778163265 95.6441418,0.000185655097 C64.8241316,-0.00550408163 34.1417235,5.86108776 4.65502959,16.2514653 C1.96372347,17.1994959 -0.0025622449,19.8148837 0.000281606365,22.9218429 L0.0382438776,64.9739755 C0.121754082,67.4251898 1.49397857,69.3924245 4.94257041,70.8329755 C34.1958153,83.0899959 66.0331316,91.9382816 102.634326,92.523802 C140.181652,92.1584449 174.282285,83.6603327 206.47357,69.6116388 C208.762509,68.6133122 209.607101,66.0055163 209.684917,63.9946286 L209.676377,24.9944143 C210.142326,19.4836898 206.33407,17.1586898 201.280754,15.2379551 L201.280754,15.2379551 Z" id="Fill-7"></path>
                    <path d="M180.853873,28.3238375 C176.840639,28.3049296 172.950771,32.0552969 172.667976,36.191899 L188.458047,36.191899 C188.266353,31.2107051 185.007557,28.3428888 180.853873,28.3238375" id="Fill-9"></path>
                </g>
            </g>
        </g>
    </g>
</svg>