<?xml version="1.0" encoding="UTF-8"?>
<svg width="180px" height="32px" viewBox="0 0 180 32" version="1.1" xmlns="http://www.w3.org/2000/svg" xmlns:xlink="http://www.w3.org/1999/xlink">
    <!-- Generator: Sketch 55.2 (78181) - https://sketchapp.com -->
    <title>DavidsTea</title>
    <desc>Created with Sketch.</desc>
    <defs>
        <polygon id="path-1" points="0.0002 0 21.608018 0 21.608018 31.9729 0.0002 31.9729"></polygon>
        <polygon id="path-3" points="0.4183 0.0005 26.7653 0.0005 26.7653 32 0.4183 32"></polygon>
        <polygon id="path-5" points="0 32 179.678 32 179.678 0 0 0"></polygon>
    </defs>
    <g id="01---Solutions" stroke="none" stroke-width="1" fill="none" fill-rule="evenodd">
        <g id="Solutions---Entreprises" transform="translate(-228.000000, -1099.000000)">
            <g id="Logos" transform="translate(228.000000, 1007.000000)">
                <g id="DavidsTea" transform="translate(0.000000, 92.000000)">
                    <g id="Group-3">
                        <mask id="mask-2" fill="white">
                            <use xlink:href="#path-1"></use>
                        </mask>
                        <g id="Clip-2"></g>
                        <path d="M6.6962,27.0879 L9.9352,27.0879 C14.0242,27.0879 14.8202,24.0409 14.8202,15.9999 C14.8202,10.0999 14.8202,4.9129 10.1542,4.9129 L6.6962,4.9129 L6.6962,27.0879 Z M0.0002,-0.0001 L11.1702,-0.0001 C19.9522,-0.0001 21.5982,5.8459 21.5982,15.8079 C21.5982,20.7209 22.3402,31.9729 10.9232,31.9729 L0.0002,31.9729 L0.0002,-0.0001 Z" id="Fill-1" fill="#ffb8c5" mask="url(#mask-2)"></path>
                    </g>
                    <g id="Group-6" transform="translate(20.000000, 0.000000)">
                        <mask id="mask-4" fill="white">
                            <use xlink:href="#path-3"></use>
                        </mask>
                        <g id="Clip-5"></g>
                        <path d="M13.3173,6.1475 L13.2343,6.1475 L10.1893,19.9795 L16.5833,19.9795 L13.3173,6.1475 Z M0.4183,32.0005 L9.2833,0.0005 L18.0923,0.0005 L26.7653,32.0005 L19.7123,32.0005 L17.9283,24.9185 L8.7893,24.9185 L6.9783,32.0005 L0.4183,32.0005 Z" id="Fill-4" fill="#ffb8c5" mask="url(#mask-4)"></path>
                    </g>
                    <polygon id="Fill-7" fill="#ffb8c5" points="41.4682 0 48.4392 0 53.4062 23.272 53.4892 23.272 59.0872 0 65.7012 0 57.2492 32 49.4002 32"></polygon>
                    <mask id="mask-6" fill="white">
                        <use xlink:href="#path-5"></use>
                    </mask>
                    <g id="Clip-10"></g>
                    <polygon id="Fill-9" fill="#ffb8c5" mask="url(#mask-6)" points="67.568 32 74.264 32 74.264 0 67.568 0"></polygon>
                    <path d="M83.3759,27.0879 L86.6139,27.0879 C90.7029,27.0879 91.4989,24.0409 91.4989,15.9999 C91.4989,10.0999 91.4989,4.9129 86.8339,4.9129 L83.3759,4.9129 L83.3759,27.0879 Z M76.6789,-0.0001 L87.8489,-0.0001 C96.6309,-0.0001 98.2779,5.8459 98.2779,15.8079 C98.2779,20.7209 99.0189,31.9729 87.6019,31.9729 L76.7069,31.9729 L76.7069,-0.0001 L76.6789,-0.0001 Z" id="Fill-11" fill="#ffb8c5" mask="url(#mask-6)"></path>
                    <polygon id="Fill-12" fill="#ffb8c5" mask="url(#mask-6)" points="132.0888 0 132.0888 5.324 124.0208 5.324 124.0208 32 117.3238 32 117.3238 5.324 108.0208 5.324 108.0208 0"></polygon>
                    <polygon id="Fill-13" fill="#ffb8c5" mask="url(#mask-6)" points="133.955 32 133.955 0 151.41 0 151.41 4.913 140.652 4.913 140.652 12.789 150.587 12.789 150.587 17.701 140.652 17.701 140.652 27.06 151.767 27.06 151.767 31.973 133.955 31.973"></polygon>
                    <path d="M166.2021,6.1475 L166.1201,6.1475 L163.0741,19.9795 L169.4691,19.9795 L166.2021,6.1475 Z M153.3311,32.0005 L162.1951,0.0005 L171.0051,0.0005 L179.6781,32.0005 L172.6241,32.0005 L170.8411,24.9185 L161.7011,24.9185 L159.8901,32.0005 L153.3311,32.0005 Z" id="Fill-14" fill="#ffb8c5" mask="url(#mask-6)"></path>
                    <path d="M105.496,24.4258 C105.469,25.4408 105.496,26.4018 105.743,27.1148 C106.045,27.8278 106.594,28.1578 107.609,28.1578 C108.624,28.1578 109.53,27.3628 109.53,25.8798 C109.53,21.1868 100.419,22.2298 100.419,15.1498 C100.419,10.3738 104.37,8.9198 107.719,8.9198 C111.231,8.9198 114.442,10.9498 114.141,15.7258 L109.063,15.7258 C109.063,14.1888 108.927,13.2558 108.542,12.8718 C108.213,12.4878 107.773,12.3778 107.225,12.3778 C106.1,12.3778 105.469,13.2558 105.469,14.7378 C105.469,18.2498 114.58,18.0858 114.58,25.1938 C114.58,29.0638 111.945,31.9728 107.637,31.9728 C103.136,31.9728 100.117,30.6008 100.419,24.4258 L105.496,24.4258 Z" id="Fill-15" fill="#ffb8c5" mask="url(#mask-6)"></path>
                </g>
            </g>
        </g>
    </g>
</svg>