<?xml version="1.0" encoding="UTF-8"?>
<svg width="126px" height="32px" viewBox="0 0 126 32" version="1.1" xmlns="http://www.w3.org/2000/svg" xmlns:xlink="http://www.w3.org/1999/xlink">
    <!-- Generator: Sketch 55.2 (78181) - https://sketchapp.com -->
    <title>LVMH</title>
    <desc>Created with Sketch.</desc>
    <g id="01---Solutions" stroke="none" stroke-width="1" fill="none" fill-rule="evenodd">
        <g id="Solutions---Entreprises" transform="translate(-722.000000, -1099.000000)" fill="#ffb8c5">
            <g id="Logos" transform="translate(228.000000, 1007.000000)">
                <g id="LVMH" transform="translate(494.000000, 92.000000)">
                    <path d="M25.3176471,22.5882353 L26.0705882,22.7764706 L23.4352941,30.7764706 L0.188235294,30.7764706 L0.188235294,29.9294118 L1.31764706,29.9294118 C2.63529412,29.9294118 3.29411765,29.5529412 3.85882353,28.7058824 C4.14117647,28.2352941 4.32941176,27.1058824 4.32941176,25.4117647 L4.32941176,5.36470588 C4.32941176,3.48235294 4.14117647,2.25882353 3.67058824,1.78823529 C3.10588235,1.12941176 2.25882353,0.752941176 1.03529412,0.752941176 L0,0.752941176 L0,0 L13.4588235,0 L13.4588235,0.752941176 C11.8588235,0.752941176 10.8235294,0.847058824 10.1647059,1.22352941 C9.50588235,1.50588235 9.12941176,1.97647059 8.84705882,2.44705882 C8.56470588,2.91764706 8.47058824,4.04705882 8.47058824,5.83529412 L8.47058824,25.6 C8.47058824,26.8235294 8.56470588,27.7647059 8.84705882,28.2352941 C9.03529412,28.5176471 9.31764706,28.8 9.69411765,28.9882353 C10.0705882,29.1764706 11.5764706,29.1764706 13.5529412,29.1764706 L15.4352941,29.1764706 C17.7882353,29.1764706 19.3882353,28.9882353 20.3294118,28.6117647 C21.2705882,28.2352941 22.1176471,27.6705882 22.9647059,26.7294118 C23.8117647,25.7882353 24.5647059,24.5647059 25.3176471,22.5882353" id="Fill-1"></path>
                    <path d="M52.5175529,0 L52.5175529,0.847058824 C51.4822588,1.03529412 51.0116706,1.41176471 50.4469647,1.88235294 C49.6940235,2.63529412 48.9410824,3.76470588 48.3763765,5.27058824 L37.7410824,31.6235294 L36.7999059,31.6235294 L25.5057882,4.98823529 C24.9410824,3.57647059 24.4704941,2.82352941 24.2822588,2.44705882 C23.9057882,1.97647059 23.4352,1.6 22.8704941,1.31764706 C22.3057882,1.03529412 21.9293176,0.847058824 20.9881412,0.847058824 L20.9881412,0 L32.6587294,0 L32.6587294,0.847058824 C31.2469647,0.941176471 30.7763765,1.22352941 30.3999059,1.6 C30.0234353,1.97647059 29.7410824,2.35294118 29.7410824,2.91764706 C29.7410824,3.67058824 30.1175529,4.89411765 30.7763765,6.49411765 L38.4940235,24.4705882 L45.7410824,6.68235294 C46.3999059,4.89411765 46.7763765,3.67058824 46.7763765,3.01176471 C46.7763765,2.54117647 46.5881412,2.16470588 46.1175529,1.78823529 C45.6469647,1.41176471 44.7999059,1.12941176 43.7646118,0.941176471 C43.6704941,0.941176471 43.5763765,0.941176471 43.3881412,0.847058824 L43.3881412,0 L52.5175529,0 Z" id="Fill-3"></path>
                    <path d="M71.6237176,30.7766588 L60.0472471,5.17665882 L60.0472471,25.5051294 C60.0472471,27.3874824 60.2354824,28.5178353 60.7060706,28.9884235 C61.2707765,29.6472471 61.9296,29.9296 63.1531294,29.9296 L64.2825412,29.9296 L64.2825412,30.7766588 L53.4590118,30.7766588 L53.4590118,29.9296 L55.2472471,29.9296 C56.5648941,29.9296 57.5060706,29.5531294 57.9766588,28.7992471 C58.3531294,28.3286588 58.4472471,27.2001882 58.4472471,25.5051294 L58.4472471,5.27077647 C58.4472471,3.95312941 58.2590118,2.91783529 57.9766588,2.35312941 C57.7884235,1.88254118 57.4119529,1.60018824 56.8472471,1.22371765 C56.2825412,0.941364706 55.5296,0.753129412 54.3060706,0.753129412 L54.3060706,0.000188235294 L62.3060706,0.000188235294 L73.3178353,24.0933647 L84.2345412,0.000188235294 L92.5178353,0.000188235294 L92.5178353,0.847247059 L91.4825412,0.847247059 C90.1648941,0.847247059 89.4110118,1.22371765 88.9404235,1.97665882 C88.5648941,2.44724706 88.3766588,3.57665882 88.3766588,5.27077647 L88.3766588,25.5051294 C88.3766588,27.3874824 88.5648941,28.5178353 89.0354824,28.9884235 C89.6001882,29.6472471 90.3521882,29.9296 91.5766588,29.9296 L92.4237176,29.9296 L92.4237176,30.7766588 L79.9992471,30.7766588 L79.9992471,29.9296 L80.9404235,29.9296 C82.2590118,29.9296 83.2001882,29.5531294 83.6707765,28.7992471 C84.0472471,28.3286588 84.1413647,27.2001882 84.1413647,25.5051294 L84.1413647,4.89430588 L72.3766588,30.7766588 L71.6237176,30.7766588 Z" id="Fill-5"></path>
                    <path d="M102.494118,14.1176471 L116.705882,14.1176471 L116.705882,5.36470588 C116.705882,3.76470588 116.611765,2.72941176 116.423529,2.25882353 C116.235294,1.88235294 115.952941,1.6 115.482353,1.31764706 C114.823529,0.941176471 114.352941,0.752941176 113.6,0.752941176 L112.564706,0.752941176 L112.564706,0 L125.082353,0 L125.082353,0.847058824 L124.047059,0.847058824 C123.294118,0.847058824 122.823529,1.03529412 122.258824,1.41176471 C121.788235,1.69411765 121.411765,1.97647059 121.317647,2.54117647 C121.129412,3.01176471 121.035294,4.04705882 121.035294,5.55294118 L121.035294,25.5058824 C121.035294,27.1058824 121.129412,28.0470588 121.317647,28.6117647 C121.505882,28.9882353 121.788235,29.2705882 122.258824,29.5529412 C122.917647,29.9294118 123.482353,30.1176471 124.141176,30.1176471 L125.176471,30.1176471 L125.176471,30.9647059 L112.658824,30.9647059 L112.658824,30.1176471 L113.694118,30.1176471 C114.917647,30.1176471 115.670588,29.7411765 116.235294,28.9882353 C116.611765,28.5176471 116.8,27.3882353 116.8,25.5058824 L116.8,15.8117647 L102.494118,15.8117647 L102.494118,25.4117647 C102.494118,27.0117647 102.588235,27.9529412 102.776471,28.5176471 C102.964706,28.8941176 103.247059,29.1764706 103.717647,29.4588235 C104.376471,29.8352941 104.847059,30.0235294 105.6,30.0235294 L106.729412,30.0235294 L106.729412,30.8705882 L94.4,30.8705882 L94.4,30.0235294 L95.4352941,30.0235294 C96.6588235,30.0235294 97.2235294,29.6470588 97.8823529,28.8941176 C98.2588235,28.4235294 98.4470588,27.2941176 98.4470588,25.4117647 L98.4470588,5.36470588 C98.4470588,3.76470588 98.3529412,2.72941176 98.1647059,2.25882353 C97.9764706,1.88235294 97.6941176,1.6 97.2235294,1.31764706 C96.5647059,0.941176471 96.0941176,0.752941176 95.3411765,0.752941176 L94.3058824,0.752941176 L94.3058824,0 L106.729412,0 L106.729412,0.847058824 L105.6,0.847058824 C104.847059,0.847058824 104.376471,1.03529412 103.811765,1.41176471 C103.341176,1.69411765 103.058824,1.97647059 102.870588,2.54117647 C102.682353,3.01176471 102.588235,4.04705882 102.588235,5.55294118 L102.494118,14.1176471 Z" id="Fill-7"></path>
                </g>
            </g>
        </g>
    </g>
</svg>