<?xml version="1.0" encoding="UTF-8"?>
<svg width="215px" height="33px" viewBox="0 0 215 33" version="1.1" xmlns="http://www.w3.org/2000/svg" xmlns:xlink="http://www.w3.org/1999/xlink">
    <!-- Generator: Sketch 55.2 (78181) - https://sketchapp.com -->
    <title>Decathlon</title>
    <desc>Created with Sketch.</desc>
    <g id="00---Homepage" stroke="none" stroke-width="1" fill="none" fill-rule="evenodd">
        <g id="PRODUCT-SHOT-HEADER-WHITE-BG" transform="translate(-483.000000, -1206.000000)" fill="#ffb8c5">
            <g id="Logos" transform="translate(253.000000, 1139.000000)">
                <path d="M399.986436,67 L398.386099,67.1329875 L396.78585,67.39905 L395.23691,67.8254515 L393.742798,68.4370886 L392.327366,69.1545371 L390.965619,70.0323244 L389.712209,71.0430992 L388.537742,72.1857218 L387.496696,73.4365227 L386.589246,74.7656083 L385.786877,76.1743812 L385.146531,77.6638056 L384.667152,79.2863052 L384.318904,80.9610529 L384.131799,82.6096766 L384.131799,84.1787006 L384.292678,85.7727092 L384.613467,87.3691723 L385.065476,88.8835812 L385.654425,90.3469692 L386.000297,91.0370663 L386.321086,91.7010392 L378.925687,91.7010392 L378.925687,67.6116371 L370.304338,67.6116371 L370.304338,99.6270741 L388.696421,99.6270741 L388.696421,94.9210539 L389.122115,95.3474553 L389.630097,95.7714898 L390.829646,96.7822646 L392.165167,97.688543 L393.60797,98.4321156 L395.128396,99.0699645 L396.730933,99.5758778 L398.33127,99.8670125 L399.933895,100 L400.680467,100 L400.680467,99.9988604 L401.557026,99.9988604 L403.157363,99.8385215 L404.840956,99.4939989 L406.548575,98.9607342 L408.069001,98.2967612 L409.484433,97.4997131 L410.819866,96.5696776 L412.0731,95.5055149 L413.194057,94.3354532 L414.208789,93.0587035 L415.088869,91.7021789 L415.837641,90.2674572 L416.396931,88.8836689 L416.611583,88.2730837 L416.611583,99.6247948 L425.286529,99.6247948 L425.286529,83.991098 L436.15085,99.6247948 L444.054054,99.6247948 L444.054054,67.6116371 L435.296908,67.5321252 L435.323223,83.3271251 L424.646183,67.6116371 L416.611583,67.6116371 L416.611583,78.9384514 L416.477987,78.3539027 L416.025978,77.0248171 L415.357117,75.6160442 L414.503352,74.2335708 L413.515902,72.9305217 L412.314065,71.6536843 L410.927148,70.4575862 L409.511803,69.4740751 L408.069001,68.7031512 L406.574801,68.0653023 L404.99849,67.5593012 L403.370871,67.2137267 L401.68939,67.0271761 L400.678091,67.0012273 L400.678091,67.0011396 L400.678091,67 L399.986436,67 Z M401.017476,75.9189189 L402.111318,76.0750995 L403.153973,76.3598642 L404.144237,76.8264409 L405.0554,77.3970811 L406.228429,78.4597584 L406.878929,79.3140526 L407.401373,80.2726665 L407.791209,81.2577662 L408.026192,82.3204435 L408.078583,83.3831209 L408.052989,84.2895322 L407.817919,85.3522095 L407.480474,86.3627697 L406.827741,87.5794917 L406.151476,88.4626639 L405.370687,89.2393804 L404.511914,89.861027 L403.548361,90.4040707 L402.532331,90.7674383 L401.098809,91.0533992 L400.448224,91.0533992 L400.448224,91.055706 L400.032794,91.0810811 L398.938951,90.9514717 L397.896297,90.6655108 L396.880439,90.2522474 L395.942479,89.6804966 L395.109214,89.0078435 L394.35402,88.204385 L394.041052,87.7634397 L393.883881,87.5550565 L393.676724,87.1672536 L393.233381,86.1566934 L392.946007,85.1194765 L392.789007,84.0313387 L392.789007,82.9686613 L392.971601,81.8805235 L393.284655,80.8433066 L393.727998,79.8847782 L394.326193,78.9517102 L395.054677,78.1483371 L395.887856,77.4225416 L396.799105,76.851816 L397.791602,76.3853247 L398.832024,76.0750995 L399.925866,75.9189189 L400.448224,75.9189189 L401.017476,75.9189189 Z M289.284727,67.1607488 L287.685436,67.4536825 L285.978917,67.933556 L284.299821,68.62656 L282.806529,69.425646 L281.473904,70.3318685 L280.221086,71.344173 L279.1016,72.4635261 L278.088289,73.7174372 L277.181942,75.0761997 L276.409105,76.595711 L275.795879,78.1686588 L275.369513,79.7406398 L275.10276,81.3398664 L274.969339,82.9665143 L275.021811,84.5646862 L275.208758,86.2185797 L275.608932,87.8976973 L276.222157,89.7101424 L276.967661,91.3641237 L277.795256,92.775356 L278.755129,94.0554579 L279.822142,95.2557567 L280.967732,96.3226402 L282.274077,97.282475 L283.632893,98.1351731 L285.178745,98.8270346 L286.858984,99.3878538 L288.511889,99.7595359 L290.111267,99.973897 L291.737979,100 L293.390884,99.8929513 L295.017596,99.5987871 L296.590607,99.1735806 L298.110179,98.585428 L299.576224,97.8661452 L300.962375,97.0135349 L302.26872,96.0000879 L303.521626,94.8534013 L304.134763,94.2412551 L309.146037,94.2412551 L309.146037,86.7760591 L307.199044,86.7760591 L309.146037,83.7633152 L309.146037,69.2352786 L297.499239,88.4300404 L297.178959,88.7481104 L296.459559,89.3887326 L295.553389,90.0282123 L294.593516,90.533222 L293.526502,90.9344349 L292.459576,91.148708 L291.313898,91.2285112 L290.113552,91.0951837 L288.914348,90.828353 L287.847334,90.4009492 L286.887461,89.8424152 L286.033674,89.1766567 L285.260749,88.3502373 L284.620101,87.4178239 L284.140296,86.3782739 L283.793736,85.3113025 L283.606701,84.2181403 L283.606701,83.124978 L283.73898,82.0375286 L284.059259,80.9443663 L284.511817,79.9047284 L285.125131,78.9449815 L285.845585,78.0911408 L286.698229,77.371858 L287.737908,76.7061874 L289.016918,76.2264018 L290.323351,75.9060468 L291.602361,75.8261557 L292.936041,75.9858499 L294.455612,76.4121111 L295.975096,77.105203 L297.38867,77.9578133 L298.641488,78.8913693 L299.201187,79.3975215 L299.760886,79.9036738 L304.186093,73.0254878 L303.786006,72.5456143 L302.772607,71.5322552 L301.573315,70.4926173 L300.26697,69.5602039 L298.854627,68.7599754 L297.335056,68.1204957 L295.735677,67.5870979 L294.136387,67.2131306 L292.537097,67.0536122 L290.911527,67 L289.284727,67.1607488 Z M359.88365,80.2558965 L351.101157,80.2558965 L351.101157,67.9180721 L342.423348,67.9180721 L342.423348,100 L351.101157,100 L351.101157,87.9049137 L359.88365,87.9049137 L359.88365,100 L368.505564,100 L368.505564,67.9180721 L359.88365,67.8918919 L359.88365,80.2558965 Z M320.838065,67.8918919 L320.838065,75.7068224 L326.767352,75.7068224 L326.767352,100 L326.768502,100 L335.353797,100 L335.353797,75.7068224 L341.523961,75.7068224 L341.523961,67.8918919 L320.838065,67.8918919 Z M310.307986,67.8918919 L309.146037,69.7324214 L309.146037,84.2663878 L311.165854,81.3059604 L311.165854,87.2792184 L309.146037,87.2792184 L309.146037,94.7474614 L309.146037,94.7486045 L311.165854,94.7486045 L311.165854,100 L319.938678,100 L319.938678,67.8918919 L310.307986,67.8918919 Z M256.352287,67.8918919 L256.352287,76.7724539 L256.165453,76.2661311 L255.446579,75.0664829 L254.461112,73.7597499 L253.181736,72.4006175 L251.850008,71.2534566 L250.492017,70.3206411 L248.919785,69.5202308 L246.975116,68.8269054 L245.056623,68.3194397 L244.39133,68.2134099 L244.39133,76.1327587 L244.390189,76.1327587 L245.162557,76.3995915 L246.201606,76.9058263 L247.160808,77.5466644 L248.014165,78.2935323 L248.760357,79.1476607 L249.373298,80.107731 L249.8529,81.1214315 L250.171931,82.1887624 L250.358677,83.2286627 L250.412259,84.1876779 L250.332501,85.1477482 L250.145667,86.1615367 L249.772,87.2014369 L249.266135,88.2151375 L248.519942,89.2015833 L247.588057,90.1080233 L246.549009,90.8833767 L245.456467,91.4421869 L244.39133,91.8161923 L244.39133,99.8688256 L245.163787,99.7616529 L246.975116,99.3077296 L248.680599,98.695465 L250.118349,97.9760277 L251.503659,97.067126 L252.783035,96.0272257 L253.901753,94.935981 L254.887307,93.7089901 L255.84651,92.2677418 L256.352287,91.4148442 L256.352287,100 L274.069952,100 L274.069952,92.2677418 L264.904737,92.2677418 L264.904737,87.8399892 L274.069952,87.8399892 L274.069952,80.2127057 L264.904737,80.2127057 L264.904737,75.4919206 L274.069952,75.4919206 L274.069952,67.8918919 L256.352287,67.8918919 Z M230,67.8918919 L230,100 L242.517981,100 L243.694779,99.9486519 L244.390189,99.8688162 L244.390189,91.8156096 L244.282694,91.8418112 L242.999459,92.1052338 L241.501146,92.2125021 L240.672051,92.2660483 L238.319336,92.2660483 L238.319424,92.2660483 L238.319424,75.7056793 L240.699388,75.7056793 L241.876275,75.7319689 L242.999459,75.8390612 L244.095041,76.0261652 L244.390189,76.1333455 L244.390189,68.2123777 L243.105807,68.0253617 L240.913231,67.8918919 L230,67.8918919 Z" id="Decathlon"></path>
            </g>
        </g>
    </g>
</svg>