<?xml version="1.0" encoding="UTF-8"?>
<svg width="130px" height="70px" viewBox="0 0 130 70" version="1.1" xmlns="http://www.w3.org/2000/svg" xmlns:xlink="http://www.w3.org/1999/xlink">
    <!-- Generator: Sketch 55.2 (78181) - https://sketchapp.com -->
    <title>Group 21</title>
    <desc>Created with Sketch.</desc>
    <defs>
        <polygon id="path-1" points="1.10580068e-05 -4.64766127e-05 123.735534 -4.64766127e-05 123.735534 41.720415 1.10580068e-05 41.720415"></polygon>
    </defs>
    <g id="New" stroke="none" stroke-width="1" fill="none" fill-rule="evenodd">
        <g id="Homepage" transform="translate(-668.000000, -5667.000000)">
            <g id="Theme---5" transform="translate(0.000000, 5591.000000)">
                <g id="Group-21" transform="translate(668.000000, 76.000000)">
                    <path d="M1.94191388,0.138224349 C0.868740032,0.138224349 1.42108547e-14,1.00530569 1.42108547e-14,2.07350346 L1.42108547e-14,67.868017 C1.42108547e-14,68.9362148 0.868740032,69.8032961 1.94191388,69.8032961 L101.312089,69.8032961 C102.385263,69.8032961 103.253589,68.9362148 103.253589,67.868017 L103.253589,2.07350346 C103.253589,1.00530569 102.385263,0.138224349 101.312089,0.138224349 L1.94191388,0.138224349 Z" id="Fill-4" fill="#00adee"></path>
                    <path d="M14.2371079,54.0457204 L14.2371079,15.8958001 C14.2371079,15.4380011 13.8655609,15.066454 13.4077618,15.066454 C12.9499628,15.066454 12.5784157,15.4380011 12.5784157,15.8958001 L12.5784157,54.0457204 C12.5784157,54.5035194 12.9499628,54.8750665 13.4077618,54.8750665 C13.8655609,54.8750665 14.2371079,54.5035194 14.2371079,54.0457204" id="Fill-6" fill="#FFFFFF"></path>
                    <path d="M29.5800106,54.0457204 L29.5800106,15.8958001 C29.5800106,15.4380011 29.2084636,15.066454 28.7506645,15.066454 C28.2928655,15.066454 27.9213184,15.4380011 27.9213184,15.8958001 L27.9213184,54.0457204 C27.9213184,54.5035194 28.2928655,54.8750665 28.7506645,54.8750665 C29.2084636,54.8750665 29.5800106,54.5035194 29.5800106,54.0457204" id="Fill-8" fill="#FFFFFF"></path>
                    <path d="M44.9229133,54.0457204 L44.9229133,15.8958001 C44.9229133,15.4380011 44.5513663,15.066454 44.0935673,15.066454 C43.6357682,15.066454 43.2642212,15.4380011 43.2642212,15.8958001 L43.2642212,54.0457204 C43.2642212,54.5035194 43.6357682,54.8750665 44.0935673,54.8750665 C44.5513663,54.8750665 44.9229133,54.5035194 44.9229133,54.0457204" id="Fill-10" fill="#FFFFFF"></path>
                    <path d="M60.2658161,54.0457204 L60.2658161,15.8958001 C60.2658161,15.4380011 59.894269,15.066454 59.43647,15.066454 C58.9786709,15.066454 58.6071239,15.4380011 58.6071239,15.8958001 L58.6071239,54.0457204 C58.6071239,54.5035194 58.9786709,54.8750665 59.43647,54.8750665 C59.894269,54.8750665 60.2658161,54.5035194 60.2658161,54.0457204" id="Fill-12" fill="#FFFFFF"></path>
                    <path d="M75.6087188,54.0457204 L75.6087188,15.8958001 C75.6087188,15.4380011 75.2371717,15.066454 74.7793727,15.066454 C74.3215736,15.066454 73.9500266,15.4380011 73.9500266,15.8958001 L73.9500266,54.0457204 C73.9500266,54.5035194 74.3215736,54.8750665 74.7793727,54.8750665 C75.2371717,54.8750665 75.6087188,54.5035194 75.6087188,54.0457204" id="Fill-14" fill="#FFFFFF"></path>
                    <path d="M90.9516215,54.0457204 L90.9516215,15.8958001 C90.9516215,15.4380011 90.5800744,15.066454 90.1222754,15.066454 C89.6644763,15.066454 89.2929293,15.4380011 89.2929293,15.8958001 L89.2929293,54.0457204 C89.2929293,54.5035194 89.6644763,54.8750665 90.1222754,54.8750665 C90.5800744,54.8750665 90.9516215,54.5035194 90.9516215,54.0457204" id="Fill-16" fill="#FFFFFF"></path>
                    <g id="Group-20" transform="translate(5.943647, 8.017012)">
                        <mask id="mask-2" fill="white">
                            <use xlink:href="#path-1"></use>
                        </mask>
                        <g id="Clip-19"></g>
                        <path d="M116.443343,4.95787241 L110.529691,4.12686762 C109.395974,3.96763317 108.606022,2.91892504 108.764842,1.78520893 C108.924491,0.65107815 109.972785,-0.138874003 111.106915,0.0203604466 L121.950201,1.54469856 C123.084746,1.70393301 123.874699,2.75222648 123.715049,3.88635726 L122.261206,14.2299617 C122.101971,15.3640925 121.053678,16.1540447 119.919547,15.9948102 C118.785416,15.8351611 117.995464,14.7868676 118.155113,13.6531515 L118.908159,8.29267305 L85.5091483,33.181764 C84.8315726,33.6872504 83.9143158,33.7299617 83.1919553,33.2904083 L61.9221308,20.3393397 L42.3333907,37.585177 C41.7449697,38.1031037 40.9147943,38.2449219 40.1874577,37.951748 L19.7731037,29.7150973 L3.26745774,41.3417002 C2.331126,42.001445 1.03776077,41.7771069 0.378430622,40.8407751 C-0.280899522,39.9044434 -0.0565614035,38.6110781 0.879355662,37.951748 L18.3080638,25.6749378 C18.8832153,25.2693876 19.6250654,25.1839649 20.2777608,25.4472823 L40.5531994,33.6279522 L60.3272982,16.2187337 C61.0081914,15.6191164 62.0000893,15.5320351 62.7755279,16.003933 L84.1535821,29.0205199 L116.443343,4.95787241 Z" id="Fill-18" fill="#ffffff" mask="url(#mask-2)"></path>
                    </g>
                </g>
            </g>
        </g>
    </g>
</svg>