<?xml version="1.0" encoding="UTF-8"?>
<svg width="16px" height="16px" viewBox="0 0 16 16" version="1.1" xmlns="http://www.w3.org/2000/svg" xmlns:xlink="http://www.w3.org/1999/xlink">
    <!-- Generator: Sketch 55.2 (78181) - https://sketchapp.com -->
    <g id="Symbols" stroke="none" stroke-width="1" fill="none" fill-rule="evenodd">
        <g id="UI-/-Footer" transform="translate(-180.000000, -755.000000)" fill="#FFFFFF">
            <g id="Footer">
                <path d="M188.546118,771 L180.883077,771 C180.395224,771 180,770.604531 180,770.116868 L180,755.88307 C180,755.395283 180.395286,755 180.883077,755 L195.116985,755 C195.604652,755 196,755.395283 196,755.88307 L196,770.116868 C196,770.604593 195.60459,771 195.116985,771 L191.039768,771 L191.039768,764.803918 L193.119507,764.803918 L193.430918,762.389195 L191.039768,762.389195 L191.039768,760.847547 C191.039768,760.148429 191.233904,759.672003 192.23643,759.672003 L193.515104,759.671444 L193.515104,757.511697 C193.293962,757.482269 192.534928,757.416523 191.651851,757.416523 C189.808278,757.416523 188.546118,758.541842 188.546118,760.608403 L188.546118,762.389195 L186.461041,762.389195 L186.461041,764.803918 L188.546118,764.803918 L188.546118,771 L188.546118,771 Z" id="Facebook"></path>
            </g>
        </g>
    </g>
</svg>