<?xml version="1.0" encoding="UTF-8"?>
<svg width="16px" height="16px" viewBox="0 0 16 16" version="1.1" xmlns="http://www.w3.org/2000/svg" xmlns:xlink="http://www.w3.org/1999/xlink">
    <!-- Generator: Sketch 55.2 (78181) - https://sketchapp.com -->
    <title>Instagram-black</title>
    <desc>Created with Sketch.</desc>
    <g id="Symbols" stroke="none" stroke-width="1" fill="none" fill-rule="evenodd">
        <g id="UI-/-Footer" transform="translate(-344.000000, -755.000000)" fill="#FFFFFF">
            <g id="Footer">
                <path d="M352.000016,755 C354.17267,755 354.445105,755.009209 355.29839,755.048142 C356.149896,755.08698 356.731445,755.222229 357.240304,755.420006 C357.766375,755.624419 358.212515,755.897966 358.657291,756.342709 C359.102034,756.787485 359.375581,757.233625 359.580026,757.759696 C359.777771,758.268555 359.91302,758.850104 359.951858,759.70161 C359.990791,760.554895 360,760.82733 360,763.000016 C360,765.17267 359.990791,765.445105 359.951858,766.29839 C359.91302,767.149896 359.777771,767.731445 359.580026,768.240304 C359.375581,768.766375 359.102034,769.212515 358.657291,769.657291 C358.212515,770.102034 357.766375,770.375581 357.240304,770.580026 C356.731445,770.777771 356.149896,770.91302 355.29839,770.951858 C354.445105,770.990791 354.17267,771 352.000016,771 C349.82733,771 349.554895,770.990791 348.70161,770.951858 C347.850104,770.91302 347.268555,770.777771 346.759696,770.580026 C346.233625,770.375581 345.787485,770.102034 345.342709,769.657291 C344.897966,769.212515 344.624419,768.766375 344.420006,768.240304 C344.222229,767.731445 344.08698,767.149896 344.048142,766.29839 C344.009209,765.445105 344,765.17267 344,763.000016 C344,760.82733 344.009209,760.554895 344.048142,759.70161 C344.08698,758.850104 344.222229,758.268555 344.420006,757.759696 C344.624419,757.233625 344.897966,756.787485 345.342709,756.342709 C345.787485,755.897966 346.233625,755.624419 346.759696,755.420006 C347.268555,755.222229 347.850104,755.08698 348.70161,755.048142 C349.554895,755.009209 349.82733,755 352.000016,755 Z M352.000016,756.441439 C349.863913,756.441439 349.610881,756.4496 348.767313,756.488089 C347.987321,756.523655 347.563727,756.653982 347.281829,756.76354 C346.90841,756.908666 346.641913,757.082022 346.361983,757.361983 C346.082022,757.641913 345.908666,757.90841 345.76354,758.281829 C345.653982,758.563727 345.523655,758.987321 345.488089,759.767313 C345.4496,760.610881 345.441439,760.863913 345.441439,763.000016 C345.441439,765.136087 345.4496,765.389119 345.488089,766.232687 C345.523655,767.012679 345.653982,767.436273 345.76354,767.718171 C345.908666,768.09159 346.082054,768.358087 346.361983,768.638017 C346.641913,768.917978 346.90841,769.091334 347.281829,769.23646 C347.563727,769.346018 347.987321,769.476345 348.767313,769.511911 C349.610786,769.5504 349.863755,769.558561 352.000016,769.558561 C354.136245,769.558561 354.389246,769.5504 355.232687,769.511911 C356.012679,769.476345 356.436273,769.346018 356.718171,769.23646 C357.09159,769.091334 357.358087,768.917978 357.638017,768.638017 C357.917978,768.358087 358.091334,768.09159 358.23646,767.718171 C358.346018,767.436273 358.476345,767.012679 358.511911,766.232687 C358.5504,765.389119 358.558561,765.136087 358.558561,763.000016 C358.558561,760.863913 358.5504,760.610881 358.511911,759.767313 C358.476345,758.987321 358.346018,758.563727 358.23646,758.281829 C358.091334,757.90841 357.917978,757.641913 357.638017,757.361983 C357.358087,757.082022 357.09159,756.908666 356.718171,756.76354 C356.436273,756.653982 356.012679,756.523655 355.232687,756.488089 C354.389119,756.4496 354.136087,756.441439 352.000016,756.441439 Z M352.000016,758.891894 C354.268859,758.891894 356.108106,760.731141 356.108106,763.000016 C356.108106,765.268859 354.268859,767.108106 352.000016,767.108106 C349.731141,767.108106 347.891894,765.268859 347.891894,763.000016 C347.891894,760.731141 349.731141,758.891894 352.000016,758.891894 Z M352.000016,765.666667 C353.472766,765.666667 354.666667,764.472766 354.666667,763.000016 C354.666667,761.527234 353.472766,760.333333 352.000016,760.333333 C350.527234,760.333333 349.333333,761.527234 349.333333,763.000016 C349.333333,764.472766 350.527234,765.666667 352.000016,765.666667 Z M357.230428,758.729589 C357.230428,759.259788 356.80061,759.689575 356.270411,759.689575 C355.740243,759.689575 355.310425,759.259788 355.310425,758.729589 C355.310425,758.19939 355.740243,757.769572 356.270411,757.769572 C356.80061,757.769572 357.230428,758.19939 357.230428,758.729589 Z" id="Instagram"></path>
            </g>
        </g>
    </g>
</svg>