<?xml version="1.0" encoding="UTF-8"?>
<svg width="16px" height="15px" viewBox="0 0 16 15" version="1.1" xmlns="http://www.w3.org/2000/svg" xmlns:xlink="http://www.w3.org/1999/xlink">
    <!-- Generator: Sketch 55.2 (78181) - https://sketchapp.com -->
    <title>LinkedIn-black</title>
    <desc>Created with Sketch.</desc>
    <g id="Symbols" stroke="none" stroke-width="1" fill="none" fill-rule="evenodd">
        <g id="UI-/-Footer" transform="translate(-235.000000, -755.000000)" fill="#FFFFFF">
            <g id="Footer">
                <path d="M251,770 L247.463782,770 L247.463782,764.7269 C247.463782,763.346673 246.91063,762.404431 245.694262,762.404431 C244.763876,762.404431 244.246472,763.040277 244.005644,763.65307 C243.915334,763.873023 243.929445,764.17942 243.929445,764.485817 L243.929445,770 L240.426152,770 C240.426152,770 240.471308,760.659218 240.426152,759.810143 L243.929445,759.810143 L243.929445,761.409362 C244.136406,760.710124 245.25588,759.712173 247.042333,759.712173 C249.258702,759.712173 251,761.177883 251,764.334059 L251,770 L251,770 Z M236.883349,758.53557 L236.860771,758.53557 C235.731891,758.53557 235,757.756611 235,756.769226 C235,755.76263 235.753528,755 236.904986,755 C238.055503,755 238.762935,755.760709 238.785513,756.766344 C238.785513,757.75373 238.055503,758.53557 236.883349,758.53557 L236.883349,758.53557 L236.883349,758.53557 Z M235.403575,759.810143 L238.522107,759.810143 L238.522107,770 L235.403575,770 L235.403575,759.810143 L235.403575,759.810143 Z" id="LinkedIn"></path>
            </g>
        </g>
    </g>
</svg>