<?xml version="1.0" encoding="UTF-8"?>
<svg width="549px" height="122px" viewBox="0 0 549 122" version="1.1" xmlns="http://www.w3.org/2000/svg" xmlns:xlink="http://www.w3.org/1999/xlink">
    <!-- Generator: Sketch 55.2 (78181) - https://sketchapp.com -->
    <title>Logo / Full / DarkBlue</title>
    <desc>Created with Sketch.</desc>
    <defs>
        <polygon id="path-1" points="0.7554 0.125 59.5054 0.125 59.5054 92.9999 0.7554 92.9999"></polygon>
        <polygon id="path-3" points="0.1279 0.125 68.5029 0.125 68.5029 95.4999 0.1279 95.4999"></polygon>
        <polygon id="path-5" points="0.1072 0.8749 64.984 0.8749 64.984 92.9999 0.1072 92.9999"></polygon>
    </defs>
    <g id="Logo-/-Full-/-DarkBlue" stroke="none" stroke-width="1" fill="none" fill-rule="evenodd">
        <g id="Group-24">
            <g id="Group-3" transform="translate(127.000000, 0.875000)">
                <mask id="mask-2" fill="white">
                    <use xlink:href="#path-1"></use>
                </mask>
                <g id="Clip-2"></g>
                <path d="M32.7554,26.3749 C24.4564,26.3749 17.3154,30.1019 12.6174,36.8749 L12.1304,36.8749 L12.1304,0.1249 L0.7554,0.1249 L0.7554,92.9999 L12.1304,92.9999 L12.1304,55.6249 C12.1304,45.0409 20.5864,36.7499 31.3804,36.7499 C41.5554,36.7499 48.1304,43.7659 48.1304,54.6249 L48.1304,92.9999 L59.5054,92.9999 L59.5054,54.6249 C59.5054,37.7279 48.7554,26.3749 32.7554,26.3749" id="Fill-1" fill="#30186D" mask="url(#mask-2)"></path>
            </g>
            <path d="M210.9682,55.6249 C212.8862,44.8329 221.5212,37.6249 232.6282,37.6249 C244.0872,37.6249 252.7212,44.6689 254.7822,55.6249 L210.9682,55.6249 Z M233.1282,27.2499 C213.4272,27.2499 199.1282,41.4439 199.1282,60.9999 C199.1282,81.4979 213.6372,96.3749 233.6282,96.3749 C247.7742,96.3749 259.3442,89.8199 264.5792,78.8399 L264.7892,78.3999 L255.2922,73.5829 L255.0612,74.0149 C251.1192,81.4079 243.0022,85.9999 233.8782,85.9999 C221.5022,85.9999 212.5072,78.0719 210.8212,65.7499 L266.5852,65.7499 L266.6262,65.2949 C266.7532,63.8969 266.7532,62.3599 266.7532,61.1249 C266.7532,41.4969 252.6112,27.2499 233.1282,27.2499 L233.1282,27.2499 Z" id="Fill-4" fill="#30186D"></path>
            <path d="M304.1562,79.1249 L303.5802,79.1249 L281.9552,29.7499 L269.9822,29.7499 L298.3332,93.2559 C297.8542,94.3949 297.3952,95.5519 296.9392,96.7019 C293.8952,104.3759 291.0202,111.6249 283.2532,111.6249 C281.0682,111.6249 278.0062,110.9369 275.0602,109.7839 L274.3782,109.5179 L274.3782,119.7029 L274.6782,119.8329 C277.5312,121.0739 281.5342,121.8749 284.8782,121.8749 C298.6252,121.8749 303.8222,108.9309 309.3242,95.2279 L334.8592,29.7499 L322.6562,29.7499 L304.1562,79.1249 Z" id="Fill-6" fill="#30186D"></path>
            <g id="Group-10" transform="translate(339.000000, 0.875000)">
                <mask id="mask-4" fill="white">
                    <use xlink:href="#path-3"></use>
                </mask>
                <g id="Clip-9"></g>
                <path d="M57.3779,60.8749 C57.3779,74.6999 47.5439,85.1249 34.5029,85.1249 C21.3909,85.1249 11.5029,74.6999 11.5029,60.8749 C11.5029,47.1219 21.3909,36.7499 34.5029,36.7499 C47.5439,36.7499 57.3779,47.1219 57.3779,60.8749 L57.3779,60.8749 Z M57.1279,38.2499 L56.6569,38.2499 C51.9549,30.6989 43.4429,26.3749 33.2529,26.3749 C14.3679,26.3749 0.1279,41.2069 0.1279,60.8749 C0.1279,80.6139 14.4219,95.4999 33.3779,95.4999 C43.5739,95.4999 51.8299,91.1519 56.6599,83.2499 L57.1279,83.2499 L57.1279,92.9999 L68.5029,92.9999 L68.5029,0.1249 L57.1279,0.1249 L57.1279,38.2499 Z" id="Fill-8" fill="#30186D" mask="url(#mask-4)"></path>
            </g>
            <path d="M465.2529,63.1854 L465.2529,68.2494 C465.2529,78.8484 456.5659,86.2494 444.1279,86.2494 C435.8309,86.2494 430.8779,82.8384 430.8779,77.1244 C430.8779,70.8034 437.0699,66.5404 448.3099,65.1214 L465.2529,63.1854 Z M449.3779,27.3744 C433.1279,27.3744 422.6279,36.1574 422.6279,49.7494 L422.6279,50.2494 L434.1359,50.2494 L434.1279,49.7424 C434.0769,46.5704 435.0729,43.9244 437.0869,41.8784 C439.7449,39.1774 443.9519,37.7494 449.2529,37.7494 C459.1219,37.7494 465.2529,42.9224 465.2529,51.2494 L465.2529,53.3074 L448.1959,55.3784 C429.9609,57.4444 419.5029,65.4624 419.5029,77.3744 C419.5029,88.4404 428.7959,95.8744 442.6279,95.8744 C452.5279,95.8744 460.2249,91.9854 464.9039,84.6244 L465.2529,84.6244 L465.2529,93.8744 L476.6279,93.8744 L476.6279,51.4994 C476.6279,36.8444 465.9319,27.3744 449.3779,27.3744 L449.3779,27.3744 Z" id="Fill-11" fill="#30186D"></path>
            <g id="Group-15" transform="translate(484.000000, 28.875000)">
                <mask id="mask-6" fill="white">
                    <use xlink:href="#path-5"></use>
                </mask>
                <g id="Clip-14"></g>
                <path d="M52.7812,0.8749 L34.2812,50.2499 L33.7052,50.2499 L12.0802,0.8749 L0.1072,0.8749 L28.4582,64.3809 C27.9792,65.5199 27.5202,66.6769 27.0642,67.8269 C24.0202,75.5009 21.1452,82.7499 13.3782,82.7499 C11.1932,82.7499 8.1312,82.0619 5.1852,80.9089 L4.5032,80.6429 L4.5032,90.8279 L4.8032,90.9579 C7.6562,92.1989 9.6592,92.9999 13.0032,92.9999 C26.7502,92.9999 33.9472,80.0559 39.4492,66.3529 L64.9842,0.8749 L52.7812,0.8749 Z" id="Fill-13" fill="#30186D" mask="url(#mask-6)"></path>
            </g>
            <path d="M57.3723,59.382 C57.3433,73.401 47.6813,83.569 34.3733,83.569 C21.0663,83.569 11.4033,73.401 11.3753,59.382 L0.0003,59.382 C0.0293,79.735 14.1553,93.945 34.3733,93.945 C54.2713,93.945 68.7173,79.413 68.7473,59.382 L57.3723,59.382 Z" id="Fill-16" fill="#30186D"></path>
            <path d="M7.4082,29.6249 C3.0462,29.6249 0.0002,32.6719 0.0002,37.0329 C0.0002,41.3949 3.0462,44.4419 7.4082,44.4419 C11.7012,44.4419 14.8162,41.3259 14.8162,37.0329 C14.8162,32.7409 11.7012,29.6249 7.4082,29.6249" id="Fill-18" fill="#30186D"></path>
            <path d="M34.3738,29.6249 C30.0118,29.6249 26.9658,32.6719 26.9658,37.0329 C26.9658,41.3949 30.0118,44.4419 34.3738,44.4419 C38.6668,44.4419 41.7818,41.3259 41.7818,37.0329 C41.7818,32.7409 38.6668,29.6249 34.3738,29.6249" id="Fill-20" fill="#30186D"></path>
            <path d="M61.3391,29.6249 C56.9771,29.6249 53.9311,32.6719 53.9311,37.0329 C53.9311,41.3949 56.9771,44.4419 61.3391,44.4419 C65.6321,44.4419 68.7471,41.3259 68.7471,37.0329 C68.7471,32.7409 65.6321,29.6249 61.3391,29.6249" id="Fill-22" fill="#30186D"></path>
        </g>
    </g>
</svg>