<?xml version="1.0" encoding="UTF-8"?>
<svg width="16px" height="13px" viewBox="0 0 16 13" version="1.1" xmlns="http://www.w3.org/2000/svg" xmlns:xlink="http://www.w3.org/1999/xlink">
    <!-- Generator: Sketch 55.2 (78181) - https://sketchapp.com -->
    <title>Twitter-black</title>
    <desc>Created with Sketch.</desc>
    <g id="Symbols" stroke="none" stroke-width="1" fill="none" fill-rule="evenodd">
        <g id="UI-/-Footer" transform="translate(-289.000000, -756.000000)" fill="#FFFFFF">
            <g id="Footer">
                <path d="M305,757.538967 C304.412103,757.8 303.779128,757.976526 303.115161,758.055399 C303.793215,757.649765 304.313494,757.006573 304.558608,756.240376 C303.923754,756.615962 303.222222,756.889202 302.472795,757.035681 C301.875506,756.398122 301.021835,756 300.077068,756 C298.265481,756 296.795739,757.469484 296.795739,759.28169 C296.795739,759.538967 296.823913,759.788732 296.880261,760.029108 C294.152081,759.892019 291.733815,758.586854 290.113811,756.599061 C289.831132,757.085446 289.669601,757.649765 289.669601,758.250704 C289.669601,759.388732 290.249046,760.393427 291.129952,760.98216 C290.592769,760.966197 290.085637,760.816901 289.642367,760.57277 L289.642367,760.613146 C289.642367,762.203756 290.774021,763.530516 292.276633,763.830986 C292.001467,763.907981 291.711275,763.946479 291.411692,763.946479 C291.200387,763.946479 290.993778,763.926761 290.793743,763.888263 C291.211657,765.191549 292.423138,766.140845 293.860011,766.166197 C292.736808,767.046948 291.320596,767.571831 289.783236,767.571831 C289.518401,767.571831 289.256383,767.556808 289,767.526761 C290.452838,768.456338 292.178963,769 294.031872,769 C300.070494,769 303.371544,764 303.371544,759.662911 C303.371544,759.520188 303.368727,759.377465 303.363092,759.237559 C304.00452,758.774648 304.561425,758.197183 305,757.538967" id="Twitter"></path>
            </g>
        </g>
    </g>
</svg>